<svg id="svg" version="1.1" xmlns="http://www.w3.org/2000/svg" xmlns:xlink="http://www.w3.org/1999/xlink" width="400" height="400" viewBox="0, 0, 400,400"><g id="svgg"><path id="path0" d="M191.797 90.284 C 125.630 92.413,88.180 147.051,99.060 225.586 C 105.467 271.842,136.074 302.853,181.836 309.454 C 186.808 310.171,256.759 310.167,263.281 309.449 C 272.860 308.395,277.848 306.533,281.938 302.485 C 292.182 292.344,289.483 271.516,277.071 264.932 C 271.215 261.825,273.511 261.976,227.930 261.705 C 179.513 261.417,180.456 261.521,170.140 255.371 C 154.366 245.968,147.087 228.674,147.080 200.586 C 147.071 164.699,160.555 144.094,187.500 138.818 C 190.395 138.251,195.822 138.132,229.883 137.883 C 269.914 137.592,271.281 137.535,275.349 135.989 C 291.752 129.757,293.595 103.274,278.190 95.178 C 270.613 91.197,260.270 90.255,222.656 90.122 C 209.873 90.076,195.986 90.149,191.797 90.284 M248.828 99.847 C 250.654 99.977,252.178 100.108,252.214 100.139 C 252.250 100.170,239.350 100.137,223.548 100.065 C 189.089 99.908,182.047 100.252,171.751 102.594 C 167.390 103.586,168.995 103.552,173.941 102.548 C 183.075 100.693,185.607 100.585,219.336 100.604 C 257.723 100.626,266.726 101.223,272.939 104.160 C 281.132 108.034,281.003 122.153,272.743 125.707 C 268.995 127.319,267.181 127.399,227.148 127.725 C 184.899 128.069,186.086 128.003,178.125 130.462 C 151.344 138.732,136.941 163.313,136.920 200.781 C 136.897 243.124,153.642 266.601,187.277 271.384 C 191.455 271.978,195.419 272.044,222.070 271.963 C 265.740 271.831,270.501 272.160,274.504 275.587 C 279.566 279.919,279.875 290.115,275.094 295.022 C 271.380 298.834,267.730 299.300,239.063 299.616 C 179.714 300.272,173.231 299.605,155.664 291.036 C 130.731 278.873,115.632 258.288,109.949 228.711 C 109.454 226.133,109.034 224.388,109.016 224.834 C 108.999 225.280,109.342 227.632,109.780 230.061 C 110.217 232.490,110.504 234.548,110.418 234.634 C 110.332 234.720,109.962 233.247,109.595 231.360 C 109.229 229.473,108.781 227.314,108.598 226.563 C 107.997 224.080,106.819 216.661,106.428 212.891 C 106.083 209.563,105.993 195.475,106.289 191.211 C 107.045 180.341,108.857 169.819,111.099 163.281 C 111.652 161.670,112.105 160.122,112.107 159.842 C 112.108 159.562,112.482 158.515,112.937 157.515 C 113.392 156.516,113.801 155.515,113.844 155.291 C 113.888 155.066,114.219 154.202,114.579 153.370 C 114.940 152.538,115.234 151.807,115.234 151.745 C 115.234 151.431,118.037 145.703,118.190 145.703 C 118.289 145.703,118.081 146.362,117.727 147.168 C 116.121 150.829,113.312 158.119,113.098 159.180 C 112.968 159.824,113.457 158.770,114.185 156.836 C 115.976 152.077,117.378 148.821,119.186 145.224 C 120.655 142.300,121.128 140.984,120.277 142.188 C 119.908 142.708,119.882 142.708,120.039 142.188 C 120.136 141.865,120.409 141.644,120.646 141.696 C 120.883 141.749,121.371 141.222,121.731 140.527 C 122.090 139.831,122.990 138.350,123.731 137.234 C 124.519 136.048,124.955 135.009,124.783 134.730 C 124.603 134.439,124.652 134.355,124.910 134.515 C 125.458 134.853,127.089 132.566,126.722 131.974 C 126.559 131.709,126.611 131.625,126.849 131.771 C 127.400 132.112,128.264 131.010,127.903 130.426 C 127.735 130.154,127.779 130.059,128.007 130.200 C 128.223 130.334,129.327 129.301,130.459 127.905 C 131.592 126.509,133.859 124.131,135.498 122.622 C 137.136 121.112,138.477 119.690,138.477 119.461 C 138.477 119.233,139.082 118.583,139.822 118.019 C 140.562 117.454,141.035 117.212,140.873 117.480 C 140.433 118.211,141.229 118.070,141.847 117.308 C 142.309 116.738,142.302 116.693,141.797 116.984 C 139.722 118.179,143.370 115.178,146.633 113.006 C 153.742 108.273,162.243 104.428,169.875 102.492 C 174.647 101.281,174.041 101.379,185.156 100.018 C 186.553 99.846,189.448 99.675,191.590 99.637 C 193.732 99.599,195.578 99.471,195.692 99.353 C 195.955 99.081,244.386 99.531,248.828 99.847 M166.992 103.906 C 166.500 104.118,166.428 104.242,166.797 104.242 C 167.119 104.242,167.734 104.091,168.164 103.906 C 168.656 103.695,168.729 103.571,168.359 103.571 C 168.037 103.571,167.422 103.722,166.992 103.906 M160.526 106.183 C 154.225 108.747,141.635 115.984,142.307 116.656 C 142.396 116.745,144.119 115.697,146.136 114.328 C 151.122 110.945,155.594 108.577,161.363 106.267 C 164.029 105.199,165.947 104.330,165.625 104.336 C 165.303 104.342,163.008 105.173,160.526 106.183 M269.028 108.836 C 268.942 108.923,263.702 109.080,257.385 109.186 C 251.067 109.292,243.701 109.468,241.016 109.576 C 238.330 109.685,230.244 109.855,223.047 109.954 C 206.392 110.183,188.149 110.601,187.873 110.761 C 187.757 110.829,186.288 110.997,184.610 111.136 C 182.932 111.274,180.303 111.728,178.768 112.144 C 177.233 112.560,175.186 113.064,174.219 113.263 C 173.252 113.463,171.670 113.914,170.703 114.266 C 169.736 114.618,168.506 114.990,167.969 115.093 C 167.432 115.197,166.825 115.446,166.621 115.648 C 166.417 115.850,166.002 116.016,165.698 116.016 C 163.922 116.016,153.439 122.039,148.577 125.852 C 147.258 126.887,146.074 127.734,145.948 127.734 C 145.821 127.734,144.891 128.525,143.882 129.492 C 142.873 130.459,141.915 131.250,141.753 131.250 C 141.591 131.250,141.347 131.602,141.211 132.031 C 141.075 132.461,140.799 132.813,140.599 132.813 C 140.398 132.813,139.883 133.164,139.453 133.594 C 139.023 134.023,138.728 134.375,138.797 134.375 C 138.866 134.375,138.206 135.144,137.332 136.083 C 136.458 137.023,135.040 138.825,134.182 140.087 C 133.323 141.350,132.400 142.615,132.131 142.899 C 131.861 143.183,131.641 143.645,131.641 143.925 C 131.641 144.206,131.399 144.636,131.103 144.882 C 130.391 145.472,127.257 150.937,126.455 152.985 C 126.107 153.874,125.462 155.192,125.022 155.914 C 124.582 156.636,124.221 157.612,124.220 158.082 C 124.219 158.553,124.056 159.039,123.858 159.161 C 123.660 159.284,123.382 159.911,123.240 160.555 C 123.099 161.200,122.714 162.265,122.386 162.923 C 121.730 164.239,121.047 166.535,119.900 171.289 C 119.485 173.008,118.979 174.941,118.775 175.586 C 118.571 176.230,118.296 177.549,118.164 178.516 C 118.032 179.482,117.858 180.713,117.778 181.250 C 117.238 184.856,116.783 188.417,116.603 190.430 C 116.335 193.438,116.312 213.046,116.573 215.066 C 116.683 215.911,116.874 217.920,116.998 219.531 C 117.425 225.100,117.994 229.444,118.788 233.203 C 118.993 234.170,119.238 235.381,119.333 235.894 C 119.429 236.407,119.794 237.813,120.145 239.019 C 120.496 240.224,120.850 241.475,120.931 241.797 C 121.245 243.048,123.483 249.475,123.992 250.586 C 124.287 251.230,124.929 252.725,125.419 253.906 C 125.910 255.088,126.631 256.521,127.022 257.092 C 127.414 257.662,127.734 258.321,127.734 258.556 C 127.734 258.792,127.910 258.984,128.125 258.984 C 128.340 258.984,128.516 259.314,128.516 259.718 C 128.516 260.121,128.779 260.670,129.102 260.938 C 129.424 261.205,129.687 261.633,129.688 261.888 C 129.688 262.144,129.998 262.693,130.377 263.110 C 130.757 263.526,131.934 265.098,132.992 266.602 C 134.954 269.388,142.318 277.009,145.081 279.112 C 145.920 279.751,147.062 280.636,147.620 281.079 C 150.805 283.610,159.618 288.698,163.281 290.121 C 164.463 290.580,166.592 291.404,168.013 291.953 C 170.175 292.788,172.835 293.515,178.320 294.771 C 179.298 294.994,180.664 295.211,185.352 295.887 C 189.442 296.476,196.208 296.617,225.195 296.718 C 243.027 296.780,260.430 296.884,263.867 296.950 C 271.110 297.089,272.165 296.730,274.276 293.402 C 276.603 289.732,276.978 283.463,274.997 281.337 C 274.595 280.905,274.349 280.468,274.452 280.366 C 274.846 279.971,271.857 278.897,270.820 279.061 C 270.219 279.156,269.023 279.344,268.164 279.477 C 266.227 279.778,263.251 279.961,255.039 280.285 C 251.516 280.423,246.963 280.604,244.922 280.686 C 242.881 280.768,236.946 280.854,231.733 280.876 C 226.520 280.898,222.337 281.050,222.439 281.214 C 222.540 281.378,221.839 281.393,220.882 281.247 C 219.924 281.102,219.141 281.127,219.141 281.302 C 219.141 281.478,218.745 281.488,218.262 281.325 C 217.555 281.087,213.964 281.067,206.445 281.259 C 206.073 281.268,202.625 281.127,192.499 280.688 C 189.984 280.578,187.172 280.324,186.249 280.122 C 185.326 279.921,183.164 279.460,181.445 279.100 C 173.556 277.444,160.749 271.953,159.831 269.832 C 159.759 269.667,159.446 269.531,159.135 269.531 C 158.824 269.531,158.468 269.268,158.344 268.945 C 158.221 268.623,157.919 268.359,157.673 268.358 C 157.112 268.356,149.605 260.760,148.602 259.180 C 148.193 258.535,147.462 257.570,146.976 257.035 C 146.491 256.500,146.094 255.942,146.094 255.794 C 146.094 255.646,145.863 255.292,145.580 255.008 C 145.298 254.724,144.490 253.437,143.785 252.148 C 143.080 250.859,142.360 249.629,142.183 249.414 C 142.007 249.199,141.824 248.848,141.775 248.633 C 141.727 248.418,141.199 247.187,140.602 245.898 C 139.564 243.656,137.885 239.299,137.742 238.477 C 137.704 238.262,137.536 237.866,137.368 237.598 C 137.201 237.329,137.157 237.109,137.272 237.109 C 137.387 237.109,137.312 236.665,137.105 236.123 C 136.899 235.580,136.654 234.745,136.561 234.267 C 136.469 233.789,136.122 232.380,135.792 231.136 C 135.461 229.892,135.075 227.870,134.935 226.644 C 134.794 225.417,134.614 224.305,134.535 224.171 C 134.455 224.037,134.286 222.747,134.158 221.305 C 134.031 219.863,133.863 218.353,133.785 217.949 C 133.249 215.166,132.944 197.893,133.350 193.359 C 134.038 185.697,135.116 178.687,136.281 174.307 C 137.200 170.850,137.082 171.328,137.365 169.916 C 137.495 169.266,137.754 168.639,137.941 168.524 C 138.128 168.408,138.287 168.016,138.295 167.653 C 138.302 167.289,138.647 166.289,139.063 165.430 C 139.478 164.570,139.823 163.676,139.830 163.441 C 139.875 162.002,144.900 153.466,148.376 148.926 C 154.076 141.479,165.878 132.266,172.266 130.277 C 172.803 130.110,173.330 129.859,173.438 129.721 C 173.620 129.486,177.400 128.268,182.422 126.826 C 183.604 126.487,185.361 126.111,186.328 125.990 C 187.295 125.870,189.141 125.619,190.430 125.434 C 191.719 125.248,194.707 125.050,197.070 124.994 C 199.434 124.939,202.158 124.853,203.125 124.804 C 213.913 124.257,256.480 124.690,264.304 125.425 C 270.930 126.048,273.558 125.075,275.372 121.327 C 278.057 115.782,276.615 109.394,272.557 108.849 C 270.969 108.636,269.235 108.630,269.028 108.836 M139.399 118.737 C 138.892 119.160,138.669 119.511,138.904 119.518 C 139.140 119.525,139.650 119.180,140.039 118.750 C 140.944 117.750,140.592 117.743,139.399 118.737 M112.145 162.145 C 111.881 163.027,111.737 163.820,111.824 163.908 C 111.912 163.996,112.200 163.346,112.464 162.464 C 112.729 161.583,112.873 160.790,112.785 160.702 C 112.697 160.614,112.409 161.263,112.145 162.145 M108.684 178.906 C 108.684 179.658,108.765 179.966,108.863 179.590 C 108.961 179.214,108.961 178.599,108.863 178.223 C 108.765 177.847,108.684 178.154,108.684 178.906 M108.294 182.031 C 108.294 182.783,108.374 183.091,108.472 182.715 C 108.571 182.339,108.571 181.724,108.472 181.348 C 108.374 180.972,108.294 181.279,108.294 182.031 M107.919 185.938 C 107.919 186.904,107.995 187.300,108.088 186.816 C 108.181 186.333,108.181 185.542,108.088 185.059 C 107.995 184.575,107.919 184.971,107.919 185.938 M107.550 191.992 C 107.552 193.496,107.622 194.063,107.707 193.253 C 107.792 192.443,107.790 191.212,107.704 190.519 C 107.618 189.825,107.548 190.488,107.550 191.992 M107.558 208.594 C 107.558 210.420,107.626 211.167,107.708 210.254 C 107.790 209.341,107.790 207.847,107.708 206.934 C 107.626 206.021,107.558 206.768,107.558 208.594 M107.924 215.039 C 107.927 216.113,108.003 216.506,108.093 215.913 C 108.183 215.319,108.180 214.440,108.087 213.959 C 107.995 213.479,107.921 213.965,107.924 215.039 M108.302 218.945 C 108.306 219.805,108.386 220.110,108.479 219.624 C 108.573 219.138,108.569 218.435,108.472 218.062 C 108.374 217.688,108.297 218.086,108.302 218.945 M108.692 222.461 C 108.697 223.320,108.777 223.626,108.870 223.140 C 108.963 222.654,108.960 221.951,108.862 221.577 C 108.764 221.204,108.688 221.602,108.692 222.461 M197.178 271.378 C 196.378 271.462,194.972 271.463,194.053 271.380 C 193.135 271.298,193.789 271.229,195.508 271.228 C 197.227 271.226,197.978 271.294,197.178 271.378 M222.958 271.313 C 222.689 271.582,210.490 271.558,210.220 271.288 C 210.113 271.181,212.985 271.094,216.602 271.094 C 220.218 271.094,223.079 271.192,222.958 271.313 M245.215 271.386 C 241.187 271.450,234.595 271.450,230.566 271.386 C 226.538 271.323,229.834 271.271,237.891 271.271 C 245.947 271.271,249.243 271.323,245.215 271.386 " stroke="none" fill="#0b433c" fill-rule="evenodd"></path><path id="path1" d="M190.141 90.120 C 190.627 90.213,191.330 90.210,191.704 90.112 C 192.077 90.014,191.680 89.938,190.820 89.942 C 189.961 89.947,189.655 90.027,190.141 90.120 M234.473 90.134 C 236.138 90.207,238.862 90.207,240.527 90.134 C 242.192 90.061,240.830 90.001,237.500 90.001 C 234.170 90.001,232.808 90.061,234.473 90.134 M184.180 101.215 C 175.571 101.991,166.446 104.201,159.375 107.223 C 155.081 109.059,149.609 112.040,149.609 112.544 C 149.609 112.760,149.432 112.827,149.216 112.694 C 149.000 112.560,148.718 112.724,148.589 113.059 C 148.461 113.394,148.216 113.581,148.045 113.476 C 147.649 113.230,141.897 117.293,140.680 118.678 C 140.173 119.255,139.901 119.466,140.076 119.147 C 140.250 118.828,139.567 119.245,138.556 120.073 C 136.827 121.490,135.920 122.575,137.402 121.453 C 137.992 121.007,138.017 121.014,137.578 121.503 C 137.299 121.815,136.930 122.070,136.758 122.070 C 136.586 122.070,135.057 123.464,133.359 125.167 C 131.662 126.870,130.537 128.121,130.859 127.947 C 131.182 127.774,130.830 128.194,130.078 128.882 C 129.326 129.569,128.975 130.012,129.297 129.867 C 129.619 129.721,129.355 130.073,128.711 130.649 C 128.066 131.226,127.803 131.565,128.125 131.403 C 128.447 131.242,128.126 131.663,127.412 132.341 C 126.642 133.070,126.229 133.760,126.398 134.034 C 126.556 134.289,126.517 134.393,126.310 134.265 C 126.105 134.139,125.714 134.393,125.440 134.832 C 125.096 135.383,125.084 135.541,125.401 135.345 C 125.749 135.130,125.753 135.261,125.416 135.890 C 125.172 136.346,124.880 136.719,124.768 136.719 C 124.655 136.719,124.672 136.543,124.805 136.328 C 124.937 136.113,124.963 135.938,124.861 135.938 C 124.455 135.938,122.262 139.912,122.476 140.259 C 122.602 140.463,122.432 140.736,122.097 140.864 C 121.763 140.992,121.586 141.255,121.705 141.447 C 121.824 141.640,121.737 141.797,121.512 141.797 C 120.930 141.797,117.888 147.990,118.212 148.515 C 118.384 148.793,118.300 148.838,117.978 148.639 C 117.645 148.433,117.537 148.509,117.656 148.868 C 117.755 149.164,117.610 149.633,117.333 149.910 C 117.056 150.187,116.940 150.701,117.075 151.052 C 117.239 151.479,117.169 151.597,116.863 151.408 C 116.431 151.141,116.342 151.290,116.250 152.441 C 116.229 152.710,116.057 153.042,115.869 153.178 C 115.681 153.315,115.527 153.883,115.527 154.441 C 115.527 154.998,115.374 155.359,115.186 155.243 C 114.874 155.051,114.806 155.253,114.688 156.738 C 114.666 157.007,114.499 157.335,114.317 157.469 C 114.135 157.602,113.959 158.173,113.927 158.738 C 113.894 159.303,113.763 159.765,113.636 159.765 C 113.206 159.766,112.491 162.804,112.758 163.500 C 112.950 163.999,112.885 164.105,112.525 163.882 C 112.151 163.651,112.096 163.794,112.305 164.453 C 112.495 165.052,112.446 165.247,112.151 165.065 C 111.746 164.814,111.649 165.145,111.556 167.090 C 111.538 167.466,111.372 167.884,111.186 168.019 C 111.000 168.154,110.835 169.155,110.819 170.243 C 110.802 171.382,110.632 172.123,110.419 171.991 C 110.193 171.852,110.151 172.356,110.312 173.283 C 110.515 174.453,110.475 174.669,110.138 174.219 C 109.795 173.759,109.747 173.907,109.918 174.902 C 110.042 175.623,109.970 176.172,109.752 176.172 C 109.540 176.172,109.444 176.789,109.538 177.544 C 109.636 178.334,109.554 178.821,109.345 178.692 C 108.978 178.466,108.927 179.034,108.908 183.492 C 108.902 184.919,108.744 185.835,108.528 185.702 C 108.314 185.569,108.146 186.432,108.128 187.756 C 108.111 189.012,108.027 194.390,107.941 199.707 C 107.856 205.024,107.924 209.375,108.092 209.375 C 108.261 209.375,108.421 211.177,108.448 213.379 C 108.728 236.069,119.043 261.496,133.445 275.000 C 134.476 275.967,134.047 275.390,132.492 273.717 C 119.865 260.138,113.869 244.336,111.638 218.750 C 107.565 172.039,120.964 135.894,149.217 117.384 C 155.165 113.487,166.149 108.494,170.703 107.617 C 171.064 107.548,172.046 107.310,172.886 107.089 C 180.840 104.995,188.115 104.399,209.180 104.115 C 228.924 103.849,247.341 103.477,249.570 103.300 C 252.802 103.043,266.208 103.014,268.164 103.259 L 270.117 103.504 268.164 102.942 C 262.041 101.179,198.973 99.883,184.180 101.215 M278.633 114.844 C 278.633 116.025,278.706 116.509,278.795 115.918 C 278.885 115.327,278.885 114.360,278.795 113.770 C 278.706 113.179,278.633 113.662,278.633 114.844 M213.184 138.183 C 222.046 138.242,236.548 138.242,245.410 138.183 C 254.272 138.125,247.021 138.077,229.297 138.077 C 211.572 138.077,204.321 138.125,213.184 138.183 M162.479 151.855 L 161.133 153.320 162.598 151.974 C 163.403 151.234,164.063 150.575,164.063 150.509 C 164.063 150.211,163.732 150.492,162.479 151.855 M140.067 170.145 C 139.923 170.718,139.881 171.261,139.973 171.353 C 140.065 171.445,140.258 171.052,140.402 170.480 C 140.545 169.907,140.588 169.364,140.496 169.272 C 140.404 169.180,140.211 169.573,140.067 170.145 M138.936 174.311 C 138.576 175.745,138.297 177.146,138.317 177.424 C 138.336 177.702,138.683 176.699,139.088 175.195 C 139.493 173.691,139.772 172.290,139.708 172.082 C 139.644 171.874,139.296 172.877,138.936 174.311 M137.356 182.308 C 130.136 230.408,148.808 266.662,184.375 273.600 C 194.518 275.579,247.768 275.703,260.278 273.777 C 263.171 273.332,266.215 273.280,268.945 273.631 C 270.189 273.790,270.328 273.754,269.627 273.451 C 267.310 272.450,260.907 272.266,228.526 272.264 C 184.559 272.263,180.689 271.884,168.937 266.432 C 144.063 254.893,131.576 221.216,137.738 182.291 C 138.072 180.179,138.265 178.370,138.167 178.271 C 138.069 178.173,137.704 179.990,137.356 182.308 M146.992 196.094 C 146.992 197.275,147.065 197.759,147.155 197.168 C 147.244 196.577,147.244 195.610,147.155 195.020 C 147.065 194.429,146.992 194.912,146.992 196.094 M146.992 204.688 C 146.992 205.869,147.065 206.353,147.155 205.762 C 147.244 205.171,147.244 204.204,147.155 203.613 C 147.065 203.022,146.992 203.506,146.992 204.688 M193.853 261.608 C 194.447 261.698,195.326 261.696,195.806 261.603 C 196.287 261.510,195.801 261.437,194.727 261.440 C 193.652 261.443,193.259 261.519,193.853 261.608 M230.957 261.620 C 233.696 261.687,238.179 261.687,240.918 261.620 C 243.657 261.553,241.416 261.498,235.938 261.498 C 230.459 261.498,228.218 261.553,230.957 261.620 M261.626 261.604 C 262.112 261.698,262.815 261.694,263.188 261.597 C 263.562 261.499,263.164 261.422,262.305 261.427 C 261.445 261.431,261.140 261.511,261.626 261.604 M274.802 276.564 C 276.654 278.728,276.679 278.752,276.256 277.930 C 276.034 277.500,275.353 276.710,274.743 276.173 L 273.633 275.198 274.802 276.564 M282.010 302.637 L 280.664 304.102 282.129 302.755 C 283.492 301.502,283.773 301.172,283.475 301.172 C 283.410 301.172,282.751 301.831,282.010 302.637 M256.348 310.035 C 256.724 310.133,257.339 310.133,257.715 310.035 C 258.091 309.937,257.783 309.856,257.031 309.856 C 256.279 309.856,255.972 309.937,256.348 310.035 M192.487 310.439 C 193.190 310.526,194.244 310.524,194.831 310.435 C 195.418 310.346,194.844 310.275,193.555 310.277 C 192.266 310.279,191.785 310.352,192.487 310.439 M205.566 310.426 C 205.942 310.524,206.558 310.524,206.934 310.426 C 207.310 310.327,207.002 310.247,206.250 310.247 C 205.498 310.247,205.190 310.327,205.566 310.426 M213.574 310.448 C 216.851 310.514,222.212 310.514,225.488 310.448 C 228.765 310.383,226.084 310.330,219.531 310.330 C 212.979 310.330,210.298 310.383,213.574 310.448 " stroke="none" fill="#c4d191" fill-rule="evenodd"></path><path id="path2" d="M212.418 90.133 C 213.769 90.210,215.878 90.209,217.105 90.132 C 218.332 90.055,217.227 89.992,214.648 89.993 C 212.070 89.994,211.066 90.057,212.418 90.133 M196.596 100.680 C 197.839 100.757,199.773 100.757,200.893 100.678 C 202.013 100.599,200.996 100.536,198.633 100.537 C 196.270 100.538,195.353 100.602,196.596 100.680 M213.379 100.682 C 215.688 100.751,219.468 100.751,221.777 100.682 C 224.087 100.613,222.197 100.557,217.578 100.557 C 212.959 100.557,211.069 100.613,213.379 100.682 M267.578 104.310 C 266.611 104.479,261.162 104.719,255.469 104.845 C 249.775 104.971,242.920 105.164,240.234 105.274 C 237.549 105.385,227.354 105.571,217.578 105.689 C 198.869 105.914,193.085 106.064,188.281 106.449 C 136.082 110.637,107.533 153.653,113.230 219.531 C 115.166 241.916,121.320 258.512,133.311 273.690 C 136.353 277.540,143.268 283.211,149.267 286.775 C 150.741 287.650,151.851 288.521,151.734 288.710 C 151.617 288.899,151.824 288.938,152.192 288.796 C 152.683 288.608,152.777 288.678,152.543 289.056 C 152.336 289.390,152.374 289.480,152.650 289.310 C 153.218 288.959,158.225 291.446,157.925 291.930 C 157.793 292.145,157.897 292.182,158.166 292.015 C 158.796 291.626,160.998 292.555,160.677 293.074 C 160.531 293.311,160.616 293.363,160.881 293.199 C 161.519 292.804,162.957 293.327,162.641 293.838 C 162.483 294.093,162.562 294.148,162.838 293.978 C 163.486 293.577,166.083 294.496,165.764 295.014 C 165.608 295.265,165.688 295.319,165.965 295.149 C 166.551 294.786,168.823 295.268,168.558 295.698 C 168.448 295.876,168.738 295.922,169.201 295.800 C 169.718 295.665,169.949 295.733,169.799 295.976 C 169.648 296.221,169.944 296.297,170.578 296.176 C 171.204 296.056,171.507 296.132,171.359 296.371 C 171.211 296.610,171.514 296.686,172.140 296.567 C 172.703 296.459,173.068 296.528,172.951 296.721 C 172.834 296.913,173.643 297.104,174.748 297.144 C 177.195 297.234,176.399 296.587,173.668 296.266 C 172.692 296.151,171.406 295.803,170.810 295.492 C 170.214 295.181,169.375 294.919,168.945 294.910 C 168.516 294.902,167.725 294.643,167.188 294.336 C 166.650 294.029,165.915 293.771,165.553 293.764 C 165.191 293.756,164.400 293.562,163.795 293.332 C 163.190 293.102,162.627 292.941,162.544 292.975 C 162.460 293.008,162.284 292.889,162.153 292.709 C 162.022 292.530,160.859 291.875,159.570 291.255 C 132.036 278.006,117.315 254.234,114.404 218.317 C 113.581 208.163,113.916 188.875,115.025 182.589 C 115.098 182.175,115.282 180.869,115.434 179.688 C 115.585 178.506,116.032 176.125,116.426 174.396 C 116.821 172.667,117.228 170.821,117.331 170.294 C 118.252 165.588,122.972 153.035,125.312 149.070 C 125.800 148.242,126.457 147.014,126.772 146.341 C 129.795 139.874,138.605 129.225,144.531 124.874 C 145.713 124.007,146.768 123.193,146.875 123.065 C 146.982 122.938,147.565 122.518,148.170 122.133 C 148.775 121.748,149.606 121.145,150.016 120.794 C 152.627 118.558,163.026 113.419,167.969 111.922 C 169.150 111.565,170.406 111.119,170.758 110.933 C 171.993 110.279,183.235 108.223,186.814 107.995 C 188.803 107.869,190.869 107.696,191.406 107.611 C 191.943 107.525,199.590 107.363,208.398 107.250 C 245.286 106.777,263.078 106.341,267.188 105.813 C 270.531 105.382,273.260 105.313,273.798 105.645 C 273.958 105.744,274.089 105.577,274.089 105.273 C 274.089 104.970,273.961 104.801,273.805 104.897 C 273.648 104.994,272.777 104.810,271.867 104.490 C 270.077 103.858,270.156 103.861,267.578 104.310 M274.853 105.782 C 274.729 105.982,274.958 106.444,275.361 106.809 C 275.764 107.174,276.196 107.309,276.319 107.109 C 276.443 106.909,276.214 106.446,275.811 106.081 C 275.408 105.716,274.976 105.582,274.853 105.782 M277.399 110.547 C 277.399 110.869,277.550 111.484,277.734 111.914 C 277.946 112.406,278.070 112.479,278.070 112.109 C 278.070 111.787,277.919 111.172,277.734 110.742 C 277.523 110.250,277.399 110.178,277.399 110.547 M276.123 122.070 C 276.096 122.178,276.052 122.474,276.025 122.730 C 275.999 122.985,275.010 123.775,273.828 124.486 C 272.646 125.196,271.880 125.779,272.124 125.780 C 272.945 125.783,276.310 123.249,276.402 122.559 C 276.482 121.958,276.252 121.555,276.123 122.070 M213.477 126.579 C 209.759 126.724,212.314 126.817,221.452 126.872 C 228.846 126.917,234.808 126.865,234.700 126.758 C 234.405 126.462,219.689 126.338,213.477 126.579 M265.923 126.839 C 266.408 126.932,267.112 126.929,267.485 126.831 C 267.858 126.733,267.461 126.657,266.602 126.661 C 265.742 126.665,265.437 126.745,265.923 126.839 M192.578 127.195 C 194.845 127.486,198.439 127.517,198.438 127.246 C 198.438 127.085,196.899 126.979,195.020 127.012 C 193.140 127.044,192.041 127.126,192.578 127.195 M260.840 127.236 C 261.538 127.322,262.681 127.322,263.379 127.236 C 264.077 127.149,263.506 127.078,262.109 127.078 C 260.713 127.078,260.142 127.149,260.840 127.236 M188.672 127.734 C 189.441 128.232,190.346 128.232,190.039 127.734 C 189.906 127.520,189.413 127.346,188.942 127.350 C 188.246 127.355,188.196 127.427,188.672 127.734 M200.684 127.632 C 201.812 127.711,203.657 127.711,204.785 127.632 C 205.913 127.553,204.990 127.488,202.734 127.488 C 200.479 127.488,199.556 127.553,200.684 127.632 M185.547 128.125 C 185.547 128.340,185.811 128.516,186.133 128.516 C 186.455 128.516,186.719 128.340,186.719 128.125 C 186.719 127.910,186.455 127.734,186.133 127.734 C 185.811 127.734,185.547 127.910,185.547 128.125 M183.398 128.516 C 183.266 128.730,183.421 128.906,183.743 128.906 C 184.065 128.906,184.438 128.730,184.570 128.516 C 184.703 128.301,184.548 128.125,184.226 128.125 C 183.904 128.125,183.531 128.301,183.398 128.516 M178.871 129.477 C 173.353 131.170,165.234 135.043,165.234 135.983 C 165.234 136.202,165.718 136.040,166.309 135.623 C 169.186 133.590,179.675 129.297,181.765 129.297 C 182.101 129.297,182.484 129.121,182.617 128.906 C 182.968 128.339,182.199 128.456,178.871 129.477 M160.021 139.386 C 159.309 140.173,159.152 140.809,159.764 140.431 C 160.171 140.179,161.073 138.672,160.816 138.672 C 160.735 138.672,160.377 138.993,160.021 139.386 M156.597 142.676 C 155.457 144.019,155.018 144.678,155.621 144.141 C 156.806 143.086,159.171 140.234,158.861 140.234 C 158.756 140.234,157.738 141.333,156.597 142.676 M152.913 146.112 C 152.139 146.968,151.768 148.207,152.404 147.814 C 152.614 147.684,152.685 147.477,152.561 147.353 C 152.438 147.229,152.720 146.720,153.190 146.220 C 153.659 145.721,153.951 145.313,153.840 145.313 C 153.728 145.313,153.311 145.672,152.913 146.112 M147.747 152.637 C 146.568 154.340,146.487 154.557,147.033 154.557 C 147.316 154.557,147.528 154.279,147.504 153.939 C 147.480 153.599,147.660 153.357,147.903 153.403 C 148.147 153.448,148.322 153.184,148.294 152.817 C 148.265 152.449,148.475 152.197,148.760 152.256 C 149.044 152.315,149.165 152.183,149.029 151.963 C 148.675 151.389,148.575 151.441,147.747 152.637 M142.642 161.931 C 141.987 163.367,142.112 163.674,142.820 162.368 C 143.150 161.758,143.347 161.186,143.258 161.097 C 143.169 161.007,142.891 161.383,142.642 161.931 M141.265 164.910 C 140.936 165.625,140.205 167.705,139.641 169.531 C 139.077 171.357,138.457 173.291,138.262 173.828 C 135.513 181.423,134.205 203.667,135.712 217.188 C 137.995 237.665,144.043 251.389,156.095 263.437 C 162.009 269.349,174.058 275.199,183.398 276.693 C 184.043 276.796,185.713 277.062,187.109 277.283 C 193.490 278.295,211.691 278.579,237.109 278.062 C 256.708 277.664,260.157 277.416,269.246 275.756 C 271.317 275.377,272.116 275.375,272.925 275.744 C 273.844 276.162,273.903 276.147,273.457 275.609 C 272.317 274.236,270.329 274.083,264.803 274.946 C 255.540 276.392,248.656 276.650,217.706 276.711 C 194.439 276.758,192.217 276.680,185.156 275.571 C 168.515 272.958,154.330 263.107,146.211 248.524 C 144.125 244.778,143.873 244.270,142.488 241.016 C 134.165 221.453,133.549 185.898,141.197 166.436 C 142.236 163.791,142.285 162.692,141.265 164.910 M136.435 200.781 C 136.435 201.748,136.511 202.144,136.604 201.660 C 136.697 201.177,136.697 200.386,136.604 199.902 C 136.511 199.419,136.435 199.814,136.435 200.781 M253.431 261.617 C 254.566 261.696,256.324 261.695,257.337 261.615 C 258.351 261.535,257.422 261.470,255.273 261.471 C 253.125 261.472,252.296 261.537,253.431 261.617 M238.204 272.167 C 240.418 272.236,243.934 272.236,246.017 272.166 C 248.100 272.096,246.289 272.039,241.992 272.039 C 237.695 272.039,235.991 272.097,238.204 272.167 M275.238 277.715 C 275.477 278.048,275.867 278.672,276.105 279.102 C 276.344 279.531,276.544 279.673,276.551 279.416 C 276.557 279.160,276.167 278.536,275.684 278.030 C 275.200 277.524,275.000 277.382,275.238 277.715 M274.394 294.954 C 274.251 295.186,273.581 295.712,272.907 296.124 C 272.232 296.535,271.855 296.872,272.070 296.872 C 272.714 296.872,275.000 295.355,275.000 294.928 C 275.000 294.411,274.723 294.423,274.394 294.954 M176.953 297.220 C 176.953 297.460,177.437 297.659,178.027 297.662 C 178.898 297.667,178.991 297.748,178.516 298.090 C 178.028 298.440,178.050 298.472,178.645 298.279 C 179.039 298.151,179.830 298.027,180.403 298.002 C 181.314 297.963,181.273 297.918,180.078 297.645 C 179.326 297.474,178.315 297.210,177.832 297.059 C 177.281 296.886,176.953 296.947,176.953 297.220 M181.641 298.115 C 181.641 298.292,182.168 298.438,182.813 298.438 C 183.457 298.438,183.984 298.370,183.984 298.287 C 183.984 298.203,183.457 298.058,182.813 297.964 C 182.168 297.869,181.641 297.937,181.641 298.115 M185.002 298.505 C 185.112 298.683,186.291 298.814,187.621 298.797 C 190.446 298.761,190.191 298.563,187.030 298.339 C 185.805 298.252,184.892 298.327,185.002 298.505 M202.148 298.837 C 190.328 299.036,190.479 299.043,208.496 299.130 C 218.647 299.179,226.953 299.073,226.953 298.894 C 226.953 298.539,220.708 298.524,202.148 298.837 M259.180 298.828 L 257.227 299.096 259.180 299.123 C 260.254 299.138,262.012 299.013,263.086 298.846 L 265.039 298.542 263.086 298.551 C 262.012 298.556,260.254 298.681,259.180 298.828 M247.852 299.226 L 240.430 299.454 248.140 299.502 C 252.484 299.528,255.948 299.391,256.073 299.188 C 256.196 298.990,256.066 298.866,255.785 298.913 C 255.504 298.959,251.934 299.100,247.852 299.226 " stroke="none" fill="#5f815a" fill-rule="evenodd"></path><path id="path3" d="M196.003 90.127 C 196.705 90.214,197.760 90.212,198.347 90.123 C 198.934 90.034,198.359 89.963,197.070 89.965 C 195.781 89.967,195.301 90.040,196.003 90.127 M202.441 90.133 C 203.892 90.209,206.265 90.209,207.715 90.133 C 209.165 90.058,207.979 89.997,205.078 89.997 C 202.178 89.997,200.991 90.058,202.441 90.133 M195.692 99.353 C 195.578 99.471,193.732 99.599,191.590 99.637 C 189.448 99.675,186.553 99.846,185.156 100.018 C 174.041 101.379,174.647 101.281,169.875 102.492 C 162.243 104.428,153.742 108.273,146.633 113.006 C 142.402 115.823,140.982 117.057,141.973 117.057 C 142.287 117.057,142.466 116.931,142.370 116.776 C 142.086 116.316,143.285 115.533,143.793 115.847 C 144.065 116.015,144.159 115.971,144.018 115.742 C 143.683 115.200,147.885 112.354,148.479 112.721 C 148.777 112.905,148.847 112.846,148.670 112.560 C 148.417 112.151,148.904 111.928,149.736 112.073 C 149.913 112.104,149.928 111.919,149.770 111.662 C 149.566 111.333,149.698 111.279,150.217 111.478 C 150.622 111.633,150.827 111.634,150.673 111.480 C 150.279 111.086,152.689 109.691,153.209 110.013 C 153.485 110.183,153.523 110.094,153.317 109.760 C 153.082 109.381,153.176 109.311,153.667 109.499 C 154.119 109.673,154.246 109.609,154.058 109.304 C 153.869 108.999,153.997 108.935,154.448 109.109 C 154.900 109.282,155.028 109.218,154.839 108.914 C 154.651 108.609,154.778 108.545,155.230 108.718 C 155.681 108.892,155.809 108.828,155.620 108.523 C 155.432 108.218,155.559 108.154,156.011 108.328 C 156.463 108.501,156.590 108.437,156.402 108.132 C 156.213 107.827,156.340 107.764,156.792 107.937 C 157.161 108.078,157.366 108.038,157.247 107.846 C 156.976 107.407,159.323 106.562,159.871 106.901 C 160.106 107.047,160.160 106.963,159.998 106.701 C 159.739 106.282,160.280 106.096,161.617 106.144 C 161.883 106.154,162.022 106.033,161.925 105.876 C 161.689 105.495,164.476 104.656,164.969 104.960 C 165.202 105.104,165.229 104.995,165.038 104.686 C 164.803 104.306,164.934 104.229,165.545 104.389 C 165.998 104.508,166.429 104.424,166.503 104.203 C 166.576 103.983,167.199 103.782,167.888 103.757 C 168.576 103.731,169.139 103.559,169.140 103.372 C 169.140 103.186,169.492 103.126,169.922 103.238 C 170.410 103.366,170.609 103.288,170.450 103.032 C 170.287 102.768,170.563 102.691,171.219 102.817 C 171.838 102.935,172.148 102.860,172.003 102.625 C 171.857 102.389,172.234 102.308,172.971 102.416 C 173.679 102.520,174.082 102.439,173.947 102.221 C 173.812 102.002,174.216 101.921,174.924 102.025 C 175.624 102.128,176.035 102.048,175.903 101.833 C 175.769 101.618,176.254 101.532,177.068 101.627 C 177.875 101.722,178.366 101.636,178.234 101.423 C 178.099 101.204,178.759 101.142,179.877 101.268 C 180.905 101.384,181.522 101.340,181.248 101.170 C 180.083 100.451,190.335 100.195,220.378 100.195 C 237.923 100.195,252.250 100.170,252.214 100.139 C 251.670 99.671,196.131 98.899,195.692 99.353 M192.090 100.666 C 192.573 100.759,193.364 100.759,193.848 100.666 C 194.331 100.573,193.936 100.497,192.969 100.497 C 192.002 100.497,191.606 100.573,192.090 100.666 M231.543 100.682 C 233.745 100.752,237.349 100.752,239.551 100.682 C 241.753 100.612,239.951 100.555,235.547 100.555 C 231.143 100.555,229.341 100.612,231.543 100.682 M271.007 105.290 C 270.947 105.346,269.316 105.583,267.383 105.815 C 262.991 106.342,244.996 106.780,208.398 107.250 C 199.590 107.363,191.943 107.525,191.406 107.611 C 190.869 107.696,188.803 107.869,186.814 107.995 C 183.235 108.223,171.993 110.279,170.758 110.933 C 170.406 111.119,169.150 111.565,167.969 111.922 C 163.026 113.419,152.627 118.558,150.016 120.794 C 149.606 121.145,148.775 121.748,148.170 122.133 C 147.565 122.518,146.982 122.938,146.875 123.065 C 146.768 123.193,145.713 124.007,144.531 124.874 C 138.605 129.225,129.795 139.874,126.772 146.341 C 126.457 147.014,125.800 148.242,125.312 149.070 C 122.972 153.035,118.252 165.588,117.331 170.294 C 117.228 170.821,116.821 172.667,116.426 174.396 C 116.032 176.125,115.585 178.506,115.434 179.688 C 115.282 180.869,115.098 182.175,115.025 182.589 C 113.916 188.875,113.581 208.163,114.404 218.317 C 117.315 254.234,132.036 278.006,159.570 291.255 C 160.859 291.875,162.022 292.530,162.153 292.709 C 162.284 292.889,162.548 293.042,162.739 293.049 C 162.930 293.056,163.493 293.217,163.990 293.406 C 164.488 293.595,165.191 293.756,165.553 293.764 C 165.915 293.771,166.650 294.029,167.188 294.336 C 167.725 294.643,168.516 294.902,168.945 294.910 C 169.375 294.919,170.214 295.181,170.810 295.492 C 171.406 295.803,172.687 296.150,173.656 296.264 C 174.625 296.378,175.740 296.644,176.134 296.855 C 176.528 297.066,176.956 297.133,177.085 297.004 C 177.213 296.875,177.808 296.961,178.405 297.196 C 179.003 297.430,180.459 297.741,181.641 297.888 C 182.822 298.034,184.316 298.239,184.961 298.343 C 187.384 298.734,266.398 298.740,266.157 298.349 C 266.011 298.114,266.238 298.065,266.738 298.223 C 267.808 298.563,272.335 297.303,271.999 296.759 C 271.842 296.505,272.000 296.449,272.417 296.609 C 272.869 296.782,272.996 296.718,272.808 296.414 C 272.614 296.101,272.755 296.048,273.264 296.243 C 273.669 296.399,273.879 296.405,273.732 296.258 C 273.585 296.111,274.068 295.286,274.805 294.425 C 278.380 290.248,278.538 282.580,275.149 277.672 C 273.708 275.586,272.428 275.173,269.220 275.760 C 260.170 277.415,256.696 277.664,237.109 278.062 C 211.691 278.579,193.490 278.295,187.109 277.283 C 185.713 277.062,184.043 276.796,183.398 276.693 C 172.985 275.027,161.526 269.137,154.721 261.954 C 153.521 260.687,152.159 259.260,151.694 258.783 C 145.799 252.733,139.677 239.416,137.297 227.467 C 133.917 210.497,134.452 185.317,138.449 173.242 C 138.734 172.383,139.376 170.361,139.876 168.750 C 142.342 160.806,148.261 151.039,154.589 144.475 C 158.659 140.253,165.044 135.206,163.830 137.170 C 163.656 137.451,163.723 137.515,164.009 137.338 C 164.260 137.183,164.374 136.907,164.262 136.725 C 163.966 136.246,166.698 134.658,167.241 134.994 C 167.531 135.173,167.594 135.108,167.413 134.815 C 167.061 134.245,173.028 131.361,177.539 129.922 C 184.766 127.615,189.602 127.074,206.055 126.733 C 222.131 126.399,251.465 126.595,263.477 127.116 C 265.816 127.217,266.665 127.153,266.016 126.923 C 265.283 126.664,265.528 126.618,266.992 126.737 C 269.298 126.926,272.373 126.270,272.001 125.670 C 271.842 125.411,271.996 125.354,272.417 125.515 C 272.869 125.688,272.996 125.625,272.808 125.320 C 272.621 125.018,272.743 124.950,273.173 125.115 C 273.546 125.258,273.779 125.183,273.726 124.937 C 273.675 124.703,273.877 124.423,274.175 124.315 C 274.539 124.182,274.616 124.283,274.408 124.619 C 274.199 124.958,274.253 125.025,274.575 124.826 C 274.837 124.664,274.964 124.443,274.857 124.336 C 274.749 124.228,275.179 123.426,275.811 122.553 C 279.996 116.776,278.105 106.465,272.678 105.473 C 271.818 105.316,271.066 105.233,271.007 105.290 M272.557 108.849 C 276.615 109.394,278.057 115.782,275.372 121.327 C 273.558 125.075,270.930 126.048,264.304 125.425 C 256.480 124.690,213.913 124.257,203.125 124.804 C 202.158 124.853,199.434 124.939,197.070 124.994 C 194.707 125.050,191.719 125.248,190.430 125.434 C 189.141 125.619,187.295 125.870,186.328 125.990 C 185.361 126.111,183.604 126.487,182.422 126.826 C 177.400 128.268,173.620 129.486,173.438 129.721 C 173.330 129.859,172.803 130.110,172.266 130.277 C 165.878 132.266,154.076 141.479,148.376 148.926 C 144.900 153.466,139.875 162.002,139.830 163.441 C 139.823 163.676,139.478 164.570,139.063 165.430 C 138.647 166.289,138.302 167.289,138.295 167.653 C 138.287 168.016,138.128 168.408,137.941 168.524 C 137.754 168.639,137.495 169.266,137.365 169.916 C 137.082 171.328,137.200 170.850,136.281 174.307 C 135.116 178.687,134.038 185.697,133.350 193.359 C 132.944 197.893,133.249 215.166,133.785 217.949 C 133.863 218.353,134.031 219.863,134.158 221.305 C 134.286 222.747,134.455 224.037,134.535 224.171 C 134.614 224.305,134.794 225.417,134.935 226.644 C 135.075 227.870,135.461 229.892,135.792 231.136 C 136.122 232.380,136.469 233.789,136.561 234.267 C 136.654 234.745,136.899 235.580,137.105 236.123 C 137.312 236.665,137.387 237.109,137.272 237.109 C 137.157 237.109,137.201 237.329,137.368 237.598 C 137.536 237.866,137.704 238.262,137.742 238.477 C 137.885 239.299,139.564 243.656,140.602 245.898 C 141.199 247.187,141.727 248.418,141.775 248.633 C 141.824 248.848,142.007 249.199,142.183 249.414 C 142.360 249.629,143.080 250.859,143.785 252.148 C 144.490 253.437,145.298 254.724,145.580 255.008 C 145.863 255.292,146.094 255.646,146.094 255.794 C 146.094 255.942,146.491 256.500,146.976 257.035 C 147.462 257.570,148.193 258.535,148.602 259.180 C 149.605 260.760,157.112 268.356,157.673 268.358 C 157.919 268.359,158.221 268.623,158.344 268.945 C 158.468 269.268,158.824 269.531,159.135 269.531 C 159.446 269.531,159.759 269.667,159.831 269.832 C 160.749 271.953,173.556 277.444,181.445 279.100 C 183.164 279.460,185.326 279.921,186.249 280.122 C 187.172 280.324,189.984 280.578,192.499 280.688 C 202.625 281.127,206.073 281.268,206.445 281.259 C 213.964 281.067,217.555 281.087,218.262 281.325 C 218.745 281.488,219.141 281.478,219.141 281.302 C 219.141 281.127,219.924 281.102,220.882 281.247 C 221.839 281.393,222.540 281.378,222.439 281.214 C 222.337 281.050,226.520 280.898,231.733 280.876 C 236.946 280.854,242.881 280.768,244.922 280.686 C 246.963 280.604,251.516 280.423,255.039 280.285 C 263.251 279.961,266.227 279.778,268.164 279.477 C 269.023 279.344,270.219 279.156,270.820 279.061 C 271.857 278.897,274.846 279.971,274.452 280.366 C 274.349 280.468,274.595 280.905,274.997 281.337 C 276.978 283.463,276.603 289.732,274.276 293.402 C 272.165 296.730,271.110 297.089,263.867 296.950 C 260.430 296.884,243.027 296.780,225.195 296.718 C 196.208 296.617,189.442 296.476,185.352 295.887 C 180.664 295.211,179.298 294.994,178.320 294.771 C 172.835 293.515,170.175 292.788,168.013 291.953 C 166.592 291.404,164.463 290.580,163.281 290.121 C 159.618 288.698,150.805 283.610,147.620 281.079 C 147.062 280.636,145.920 279.751,145.081 279.112 C 142.318 277.009,134.954 269.388,132.992 266.602 C 131.934 265.098,130.757 263.526,130.377 263.110 C 129.998 262.693,129.688 262.144,129.688 261.888 C 129.687 261.633,129.424 261.205,129.102 260.938 C 128.779 260.670,128.516 260.121,128.516 259.718 C 128.516 259.314,128.340 258.984,128.125 258.984 C 127.910 258.984,127.734 258.792,127.734 258.556 C 127.734 258.321,127.414 257.662,127.022 257.092 C 126.631 256.521,125.910 255.088,125.419 253.906 C 124.929 252.725,124.287 251.230,123.992 250.586 C 123.483 249.475,121.245 243.048,120.931 241.797 C 120.850 241.475,120.496 240.224,120.145 239.019 C 119.794 237.813,119.429 236.407,119.333 235.894 C 119.238 235.381,118.993 234.170,118.788 233.203 C 117.994 229.444,117.425 225.100,116.998 219.531 C 116.874 217.920,116.683 215.911,116.573 215.066 C 116.312 213.046,116.335 193.438,116.603 190.430 C 116.783 188.417,117.238 184.856,117.778 181.250 C 117.858 180.713,118.032 179.482,118.164 178.516 C 118.296 177.549,118.571 176.230,118.775 175.586 C 118.979 174.941,119.485 173.008,119.900 171.289 C 121.047 166.535,121.730 164.239,122.386 162.923 C 122.714 162.265,123.099 161.200,123.240 160.555 C 123.382 159.911,123.660 159.284,123.858 159.161 C 124.056 159.039,124.219 158.553,124.220 158.082 C 124.221 157.612,124.582 156.636,125.022 155.914 C 125.462 155.192,126.107 153.874,126.455 152.985 C 127.257 150.937,130.391 145.472,131.103 144.882 C 131.399 144.636,131.641 144.206,131.641 143.925 C 131.641 143.645,131.861 143.183,132.131 142.899 C 132.400 142.615,133.323 141.350,134.182 140.087 C 135.040 138.825,136.458 137.023,137.332 136.083 C 138.206 135.144,138.866 134.375,138.797 134.375 C 138.728 134.375,139.023 134.023,139.453 133.594 C 139.883 133.164,140.398 132.813,140.599 132.813 C 140.799 132.813,141.075 132.461,141.211 132.031 C 141.347 131.602,141.591 131.250,141.753 131.250 C 141.915 131.250,142.873 130.459,143.882 129.492 C 144.891 128.525,145.821 127.734,145.948 127.734 C 146.074 127.734,147.258 126.887,148.577 125.852 C 153.439 122.039,163.922 116.016,165.698 116.016 C 166.002 116.016,166.417 115.850,166.621 115.648 C 166.825 115.446,167.432 115.197,167.969 115.093 C 168.506 114.990,169.736 114.618,170.703 114.266 C 171.670 113.914,173.252 113.463,174.219 113.263 C 175.186 113.064,177.233 112.560,178.768 112.144 C 180.303 111.728,182.932 111.274,184.610 111.136 C 186.288 110.997,187.757 110.829,187.873 110.761 C 188.149 110.601,206.392 110.183,223.047 109.954 C 230.244 109.855,238.330 109.685,241.016 109.576 C 243.701 109.468,251.067 109.292,257.385 109.186 C 263.702 109.080,268.942 108.923,269.028 108.836 C 269.235 108.630,270.969 108.636,272.557 108.849 M139.466 118.293 C 138.468 119.126,138.270 119.478,138.663 119.721 C 138.998 119.928,139.090 119.892,138.921 119.618 C 138.648 119.176,140.165 117.880,140.624 118.163 C 140.768 118.252,140.885 118.069,140.885 117.756 C 140.885 117.046,141.021 116.995,139.466 118.293 M219.043 127.637 C 225.542 127.697,236.177 127.697,242.676 127.637 C 249.175 127.576,243.857 127.527,230.859 127.527 C 217.861 127.527,212.544 127.576,219.043 127.637 M116.623 148.668 C 115.859 150.298,115.234 151.683,115.234 151.745 C 115.234 151.807,114.940 152.538,114.579 153.370 C 114.219 154.202,113.888 155.066,113.844 155.291 C 113.801 155.515,113.392 156.516,112.937 157.515 C 112.482 158.515,112.108 159.562,112.107 159.842 C 112.105 160.122,111.652 161.670,111.099 163.281 C 109.559 167.772,108.099 174.695,107.228 181.641 C 106.067 190.887,105.687 205.748,106.428 212.891 C 106.819 216.661,107.997 224.080,108.598 226.563 C 108.781 227.314,109.229 229.473,109.595 231.360 C 109.962 233.247,110.341 234.711,110.438 234.614 C 110.535 234.517,110.408 233.439,110.155 232.219 C 109.902 231.000,109.782 229.667,109.889 229.258 C 110.007 228.808,109.924 228.613,109.680 228.764 C 109.422 228.924,109.335 228.513,109.440 227.620 C 109.535 226.807,109.449 226.322,109.234 226.454 C 109.013 226.591,108.953 226.032,109.083 225.060 C 109.228 223.976,109.164 223.522,108.890 223.691 C 108.615 223.861,108.547 223.346,108.684 222.129 C 108.808 221.024,108.733 220.313,108.491 220.313 C 108.244 220.313,108.182 219.571,108.327 218.347 C 108.493 216.950,108.434 216.459,108.124 216.650 C 107.811 216.844,107.757 216.187,107.931 214.319 C 108.064 212.889,108.038 211.719,107.873 211.719 C 107.708 211.719,107.634 206.577,107.710 200.293 C 107.785 194.009,107.830 187.872,107.809 186.657 C 107.789 185.441,107.951 184.336,108.170 184.200 C 108.389 184.065,108.465 183.439,108.339 182.809 C 108.213 182.180,108.243 181.352,108.406 180.969 C 108.569 180.586,108.664 179.702,108.618 179.004 C 108.572 178.306,108.719 177.734,108.945 177.734 C 109.193 177.734,109.263 177.270,109.121 176.563 C 108.992 175.917,109.054 175.391,109.259 175.391 C 109.463 175.391,109.553 174.863,109.458 174.219 C 109.364 173.574,109.458 173.047,109.667 173.047 C 109.877 173.047,109.964 172.607,109.861 172.070 C 109.759 171.533,109.846 171.094,110.057 171.094 C 110.267 171.094,110.355 170.654,110.252 170.117 C 110.149 169.580,110.245 169.141,110.465 169.141 C 110.685 169.141,110.772 168.789,110.660 168.359 C 110.548 167.930,110.636 167.578,110.855 167.578 C 111.075 167.578,111.163 167.227,111.051 166.797 C 110.938 166.367,111.026 166.016,111.246 166.016 C 111.466 166.016,111.554 165.664,111.441 165.234 C 111.329 164.805,111.417 164.453,111.637 164.453 C 111.856 164.453,111.937 164.074,111.816 163.611 C 111.695 163.148,111.755 162.867,111.950 162.986 C 112.145 163.106,112.325 162.658,112.350 161.991 C 112.375 161.323,112.577 160.717,112.797 160.643 C 113.018 160.570,113.101 160.139,112.983 159.686 C 112.846 159.161,112.918 158.955,113.183 159.119 C 113.450 159.284,113.520 159.073,113.379 158.533 C 113.237 157.993,113.308 157.783,113.574 157.947 C 113.840 158.112,113.910 157.901,113.769 157.361 C 113.628 156.821,113.698 156.611,113.965 156.775 C 114.231 156.940,114.301 156.730,114.160 156.189 C 114.021 155.658,114.090 155.440,114.347 155.599 C 114.572 155.737,114.748 155.633,114.738 155.367 C 114.694 154.151,114.873 153.487,115.190 153.684 C 115.381 153.801,115.529 153.680,115.519 153.414 C 115.471 152.077,115.657 151.536,116.076 151.795 C 116.338 151.957,116.422 151.903,116.276 151.668 C 115.937 151.119,116.782 148.773,117.221 149.044 C 117.413 149.163,117.453 148.958,117.312 148.589 C 117.139 148.137,117.202 148.010,117.507 148.198 C 117.812 148.387,117.876 148.259,117.703 147.808 C 117.560 147.437,117.606 147.237,117.805 147.360 C 118.002 147.482,118.164 147.159,118.164 146.642 C 118.164 145.358,118.186 145.330,116.623 148.668 M194.053 271.380 C 194.972 271.463,196.378 271.462,197.178 271.378 C 197.978 271.294,197.227 271.226,195.508 271.228 C 193.789 271.229,193.135 271.298,194.053 271.380 M210.220 271.288 C 210.490 271.558,222.689 271.582,222.958 271.313 C 223.079 271.192,220.218 271.094,216.602 271.094 C 212.985 271.094,210.113 271.181,210.220 271.288 M230.566 271.386 C 234.595 271.450,241.187 271.450,245.215 271.386 C 249.243 271.323,245.947 271.271,237.891 271.271 C 229.834 271.271,226.538 271.323,230.566 271.386 M196.582 272.155 C 197.173 272.244,198.140 272.244,198.730 272.155 C 199.321 272.065,198.838 271.992,197.656 271.992 C 196.475 271.992,195.991 272.065,196.582 272.155 M224.530 272.166 C 226.313 272.238,229.125 272.238,230.780 272.165 C 232.435 272.092,230.977 272.033,227.539 272.033 C 224.102 272.034,222.748 272.093,224.530 272.166 M251.074 272.161 C 251.987 272.243,253.481 272.243,254.395 272.161 C 255.308 272.079,254.561 272.011,252.734 272.011 C 250.908 272.011,250.161 272.079,251.074 272.161 M256.543 299.494 C 257.026 299.588,257.817 299.588,258.301 299.494 C 258.784 299.401,258.389 299.325,257.422 299.325 C 256.455 299.325,256.060 299.401,256.543 299.494 M198.559 299.902 C 201.741 299.967,206.839 299.967,209.887 299.901 C 212.936 299.835,210.332 299.782,204.102 299.782 C 197.871 299.782,195.377 299.836,198.559 299.902 " stroke="none" fill="#46694c" fill-rule="evenodd"></path><path id="path4" d="M221.973 90.134 C 223.638 90.207,226.362 90.207,228.027 90.134 C 229.692 90.061,228.330 90.001,225.000 90.001 C 221.670 90.001,220.308 90.061,221.973 90.134 M203.816 100.674 C 204.518 100.761,205.572 100.759,206.159 100.670 C 206.746 100.581,206.172 100.509,204.883 100.512 C 203.594 100.514,203.113 100.587,203.816 100.674 M262.471 102.875 C 262.380 102.956,257.383 103.136,251.367 103.275 C 245.352 103.414,238.320 103.610,235.742 103.711 C 233.164 103.812,222.441 103.995,211.914 104.117 C 190.239 104.369,183.219 104.840,174.486 106.631 C 173.451 106.844,172.472 107.099,172.310 107.199 C 172.148 107.299,171.581 107.460,171.050 107.556 C 163.976 108.839,150.666 115.688,142.342 122.328 C 133.200 129.621,124.902 141.257,119.404 154.495 C 106.438 185.711,108.670 238.359,123.987 262.637 C 125.187 264.539,126.054 266.280,125.915 266.506 C 125.775 266.733,125.844 266.804,126.067 266.666 C 126.568 266.357,127.412 267.307,127.260 268.008 C 127.199 268.289,127.375 268.527,127.651 268.537 C 128.212 268.557,128.943 269.546,128.694 269.949 C 128.606 270.091,128.925 270.539,129.404 270.944 C 130.266 271.673,130.268 271.672,129.688 270.879 C 129.365 270.439,129.805 270.865,130.664 271.826 C 131.523 272.786,132.227 273.762,132.227 273.993 C 132.227 274.225,132.490 274.422,132.813 274.432 C 133.135 274.442,133.350 274.674,133.291 274.949 C 133.232 275.224,133.352 275.344,133.559 275.217 C 133.765 275.090,134.417 275.619,135.008 276.394 C 141.192 284.502,161.424 294.935,176.598 297.841 C 185.595 299.564,216.300 300.156,247.656 299.211 C 251.846 299.085,239.980 298.991,221.289 299.002 C 185.036 299.025,184.301 298.994,174.929 297.032 C 159.238 293.746,141.152 283.616,133.353 273.744 C 121.315 258.504,115.169 241.946,113.230 219.531 C 107.533 153.653,136.082 110.637,188.281 106.449 C 193.085 106.064,198.869 105.914,217.578 105.689 C 227.354 105.571,237.549 105.385,240.234 105.275 C 242.920 105.165,249.703 104.983,255.309 104.871 C 260.914 104.759,266.539 104.497,267.809 104.289 C 269.078 104.081,270.161 103.910,270.215 103.909 C 271.070 103.889,269.947 103.318,269.043 103.313 C 268.345 103.310,266.618 103.176,265.206 103.017 C 263.793 102.857,262.563 102.793,262.471 102.875 M270.928 103.858 C 270.807 104.054,271.191 104.331,271.780 104.474 C 272.369 104.618,273.511 105.166,274.316 105.693 C 275.122 106.220,275.781 106.570,275.781 106.471 C 275.781 106.164,273.116 104.238,272.578 104.156 C 272.299 104.114,271.863 103.950,271.609 103.791 C 271.355 103.633,271.049 103.663,270.928 103.858 M278.385 112.370 C 278.242 112.513,278.136 112.996,278.150 113.444 C 278.173 114.192,278.205 114.182,278.549 113.322 C 278.931 112.366,278.852 111.903,278.385 112.370 M278.125 116.625 C 278.125 117.174,278.284 117.526,278.479 117.405 C 278.674 117.285,278.741 116.835,278.629 116.406 C 278.348 115.331,278.125 115.428,278.125 116.625 M277.191 120.478 C 277.060 120.998,276.470 122.001,275.879 122.706 C 275.288 123.412,275.036 123.847,275.319 123.674 C 275.942 123.293,278.125 120.328,278.125 119.863 C 278.125 119.126,277.413 119.594,277.191 120.478 M133.764 124.316 L 132.617 125.586 133.887 124.439 C 134.585 123.808,135.156 123.236,135.156 123.169 C 135.156 122.867,134.834 123.133,133.764 124.316 M198.437 127.246 C 198.437 127.512,220.466 127.508,248.438 127.239 C 254.346 127.182,245.513 127.095,228.809 127.044 C 212.104 126.994,198.437 127.085,198.437 127.246 M191.909 127.633 C 193.152 127.711,195.086 127.710,196.206 127.631 C 197.326 127.553,196.309 127.489,193.945 127.490 C 191.582 127.491,190.666 127.555,191.909 127.633 M187.207 128.004 C 187.583 128.102,188.198 128.102,188.574 128.004 C 188.950 127.905,188.643 127.825,187.891 127.825 C 187.139 127.825,186.831 127.905,187.207 128.004 M153.294 145.996 C 148.376 151.571,142.302 161.328,143.750 161.328 C 143.965 161.328,144.097 161.181,144.043 161.001 C 143.712 159.892,150.445 149.678,154.628 144.943 C 155.778 143.642,156.626 142.578,156.513 142.578 C 156.401 142.578,154.952 144.116,153.294 145.996 M136.785 184.180 C 136.779 184.609,136.925 185.313,137.109 185.742 C 137.537 186.738,137.537 185.711,137.109 184.375 C 136.858 183.590,136.794 183.552,136.785 184.180 M136.356 187.923 C 136.371 188.442,136.542 189.219,136.737 189.648 C 136.984 190.193,137.019 189.956,136.853 188.867 C 136.577 187.054,136.316 186.558,136.356 187.923 M136.044 192.578 C 136.044 193.545,136.120 193.940,136.213 193.457 C 136.306 192.974,136.306 192.183,136.213 191.699 C 136.120 191.216,136.044 191.611,136.044 192.578 M136.440 197.461 C 136.443 198.535,136.519 198.928,136.608 198.334 C 136.698 197.741,136.696 196.862,136.603 196.381 C 136.510 195.901,136.437 196.387,136.440 197.461 M136.440 204.102 C 136.443 205.176,136.519 205.569,136.608 204.975 C 136.698 204.381,136.696 203.502,136.603 203.022 C 136.510 202.542,136.437 203.027,136.440 204.102 M136.055 209.375 C 136.055 210.557,136.128 211.040,136.217 210.449 C 136.307 209.858,136.307 208.892,136.217 208.301 C 136.128 207.710,136.055 208.193,136.055 209.375 M136.809 218.359 C 136.809 219.111,136.890 219.419,136.988 219.043 C 137.086 218.667,137.086 218.052,136.988 217.676 C 136.890 217.300,136.809 217.607,136.809 218.359 M137.527 223.110 C 137.380 226.625,141.623 240.174,144.543 245.508 C 146.626 249.314,147.443 250.670,149.302 253.407 C 158.406 266.803,172.184 274.311,191.602 276.456 C 201.928 277.596,255.170 276.501,264.837 274.949 C 270.103 274.104,271.628 274.191,273.201 275.428 C 273.991 276.050,274.162 276.087,273.974 275.598 C 273.549 274.489,271.511 273.784,268.037 273.543 C 263.746 273.246,264.029 273.238,260.450 273.765 C 247.297 275.702,194.567 275.588,184.375 273.600 C 161.196 269.079,144.446 251.844,138.471 226.367 C 137.967 224.219,137.542 222.753,137.527 223.110 M247.178 261.615 C 248.097 261.697,249.503 261.696,250.303 261.612 C 251.103 261.528,250.352 261.461,248.633 261.462 C 246.914 261.463,246.260 261.532,247.178 261.615 M277.995 283.854 C 277.601 284.248,277.683 287.969,278.080 287.723 C 278.345 287.559,278.566 283.594,278.311 283.594 C 278.280 283.594,278.138 283.711,277.995 283.854 M276.800 291.243 C 276.474 292.092,276.496 292.188,277.018 292.188 C 277.269 292.188,277.358 292.072,277.217 291.930 C 277.076 291.789,277.156 291.438,277.395 291.149 C 277.669 290.820,277.683 290.625,277.433 290.625 C 277.215 290.625,276.930 290.903,276.800 291.243 M275.600 293.589 C 274.661 295.021,275.077 295.148,276.114 293.745 C 276.588 293.103,276.816 292.578,276.619 292.578 C 276.423 292.578,275.964 293.033,275.600 293.589 M197.754 310.445 C 198.989 310.522,201.011 310.522,202.246 310.445 C 203.481 310.367,202.471 310.304,200.000 310.304 C 197.529 310.304,196.519 310.367,197.754 310.445 " stroke="none" fill="#7b9c67" fill-rule="evenodd"></path></g></svg>